<?xml version="1.0" standalone="no"?>
<!DOCTYPE svg PUBLIC "-//W3C//DTD SVG 20010904//EN"
 "http://www.w3.org/TR/2001/REC-SVG-20010904/DTD/svg10.dtd">
<svg version="1.0" xmlns="http://www.w3.org/2000/svg"
 width="700.000000pt" height="700.000000pt" viewBox="0 0 700.000000 700.000000"
 preserveAspectRatio="xMidYMid meet">
<metadata>
Created by potrace 1.14, written by Peter Selinger 2001-2017
</metadata>
<g transform="translate(0.000000,700.000000) scale(0.100000,-0.100000)"
fill="#000000" stroke="none">
<path d="M262 5992 c-9 -3 -7 -11 5 -30 10 -15 23 -36 29 -47 29 -50 530 -883
545 -905 16 -24 152 -251 189 -315 10 -16 118 -196 240 -400 122 -203 230
-383 240 -400 10 -16 97 -163 195 -325 98 -162 185 -308 195 -325 13 -23 329
-547 599 -997 25 -40 94 -156 116 -193 11 -19 97 -161 190 -317 94 -155 175
-290 180 -299 6 -10 26 -44 44 -76 96 -162 155 -234 236 -287 163 -109 367
-92 516 42 71 63 104 114 403 612 147 245 272 452 277 460 5 8 60 99 122 202
62 104 276 460 477 793 201 333 374 621 385 641 11 19 106 176 210 349 105
173 213 352 240 399 28 46 112 187 188 313 76 125 144 237 150 248 7 10 23 37
36 60 357 592 460 765 469 781 11 20 8 20 -483 20 -271 -1 -495 -3 -498 -6 -3
-4 -208 -354 -404 -690 -24 -41 -48 -82 -54 -90 -21 -33 -464 -789 -492 -840
-16 -30 -33 -59 -37 -65 -8 -10 -184 -307 -222 -375 -11 -19 -88 -150 -171
-290 -82 -140 -157 -268 -166 -285 -9 -16 -19 -31 -23 -33 -5 -2 -8 -7 -8 -11
0 -7 -118 -211 -211 -366 -10 -16 -24 -41 -32 -55 -7 -14 -67 -115 -132 -225
-65 -110 -125 -213 -134 -230 -9 -16 -19 -31 -24 -33 -4 -2 -7 -7 -7 -12 0
-17 -102 -180 -110 -175 -7 4 -36 51 -85 140 -7 11 -93 158 -193 326 -99 169
-190 322 -200 340 -11 19 -55 95 -99 169 -45 74 -91 153 -104 176 -27 46 -166
281 -190 322 -9 15 -90 153 -181 307 -91 154 -241 408 -333 565 -93 157 -174
294 -180 305 -5 11 -64 110 -129 220 -258 437 -317 537 -422 715 -59 102 -110
187 -112 190 -4 6 -1022 8 -1040 2z"/>
</g>
</svg>
