<svg xmlns="http://www.w3.org/2000/svg" viewBox="0 0 890.8 154.04"><defs><style>.cls-1{fill:#fff;}</style></defs><g id="Layer_2" data-name="Layer 2"><g id="Layer_1-2" data-name="Layer 1"><path class="cls-1" d="M0,2.06H32L100,117.54,167.85,2.06H198l-86.4,143.52c-3.1,5.16-7.22,8.46-12.58,8.46-5.78,0-9.69-3.3-12.79-8.46Z"/><path class="cls-1" d="M323.74,152l-22.47-37.73h0L288.69,93h0L255.28,36.91,187.23,152h-29.9L243.53,8.45c3.09-5.15,7-8.45,12.78-8.45s9.49,3.3,12.58,8.45L355.29,152Z"/><path class="cls-1" d="M395.71,42.27V152H370.76V15.88c0-9.69,5.15-15.67,13.4-15.67,3.92,0,7.22,1.44,11.13,5.36l105.79,105V.82H526V138.16c0,9.9-5.36,15.67-13,15.67-4.33,0-8.25-1.86-12-5.57Z"/><path class="cls-1" d="M551.39,152V2.06h26.19V152Zm123.51,0L591,86c-4.54-3.51-5.36-6.81-5.36-10.93,0-4.54,1.23-7.84,6.6-12l79.39-61h40.21l-98.16,73.2L714.91,152Z"/><path class="cls-1" d="M731.82,152V125.79H844.2c14,0,21.86-7.84,21.86-19.59,0-12.79-7.84-19.39-21.86-19.39H775.33c-28.25,0-45.78-17.94-45.78-42.68,0-24.13,16.29-42.07,46.19-42.07H883.38V28.25H775.74c-12,0-19,7-19,18.35S764,64.75,775.53,64.75H844.2c30.31,0,46.6,14.23,46.6,43.3,0,25.16-15.26,43.92-46.6,43.92Z"/></g></g></svg>